<?xml version="1.0" encoding="utf-8" standalone="no"?>
<!DOCTYPE svg PUBLIC "-//W3C//DTD SVG 1.1//EN"
  "http://www.w3.org/Graphics/SVG/1.1/DTD/svg11.dtd">
<svg xmlns:xlink="http://www.w3.org/1999/xlink" width="460.8pt" height="345.6pt" viewBox="0 0 460.8 345.6" xmlns="http://www.w3.org/2000/svg" version="1.1">
 <metadata>
  <rdf:RDF xmlns:dc="http://purl.org/dc/elements/1.1/" xmlns:cc="http://creativecommons.org/ns#" xmlns:rdf="http://www.w3.org/1999/02/22-rdf-syntax-ns#">
   <cc:Work>
    <dc:type rdf:resource="http://purl.org/dc/dcmitype/StillImage"/>
    <dc:date>2023-06-08T12:59:43.209842</dc:date>
    <dc:format>image/svg+xml</dc:format>
    <dc:creator>
     <cc:Agent>
      <dc:title>Matplotlib v3.7.1, https://matplotlib.org/</dc:title>
     </cc:Agent>
    </dc:creator>
   </cc:Work>
  </rdf:RDF>
 </metadata>
 <defs>
  <style type="text/css">*{stroke-linejoin: round; stroke-linecap: butt}</style>
 </defs>
 <g id="figure_1">
  <g id="patch_1">
   <path d="M 0 345.6 
L 460.8 345.6 
L 460.8 0 
L 0 0 
z
" style="fill: #ffffff"/>
  </g>
  <g id="patch_2">
   <path d="M 103.104 307.584 
L 369.216 307.584 
L 369.216 41.472 
L 103.104 41.472 
z
" style="fill: #ffffff"/>
  </g>
  <g id="pane3d_1">
   <g id="patch_3">
    <path d="M 123.197291 241.969309 
L 211.076164 168.307495 
L 209.854564 62.073991 
L 117.770234 129.272941 
" style="fill: #f2f2f2; opacity: 0.5; stroke: #f2f2f2; stroke-linejoin: miter"/>
   </g>
  </g>
  <g id="pane3d_2">
   <g id="patch_4">
    <path d="M 211.076164 168.307495 
L 352.090401 209.294766 
L 357.122702 99.402171 
L 209.854564 62.073991 
" style="fill: #e6e6e6; opacity: 0.5; stroke: #e6e6e6; stroke-linejoin: miter"/>
   </g>
  </g>
  <g id="pane3d_3">
   <g id="patch_5">
    <path d="M 123.197291 241.969309 
L 272.679269 290.790123 
L 352.090401 209.294766 
L 211.076164 168.307495 
" style="fill: #ececec; opacity: 0.5; stroke: #ececec; stroke-linejoin: miter"/>
   </g>
  </g>
  <g id="axis3d_1">
   <g id="line2d_1">
    <path d="M 123.197291 241.969309 
L 272.679269 290.790123 
" style="fill: none; stroke: #000000; stroke-width: 0.8; stroke-linecap: square"/>
   </g>
   <g id="text_1">
    <!-- a (km) -->
    <g transform="translate(163.305888 298.564411) rotate(-341.912962) scale(0.1 -0.1)">
     <defs>
      <path id="DejaVuSans-61" d="M 2194 1759 
Q 1497 1759 1228 1600 
Q 959 1441 959 1056 
Q 959 750 1161 570 
Q 1363 391 1709 391 
Q 2188 391 2477 730 
Q 2766 1069 2766 1631 
L 2766 1759 
L 2194 1759 
z
M 3341 1997 
L 3341 0 
L 2766 0 
L 2766 531 
Q 2569 213 2275 61 
Q 1981 -91 1556 -91 
Q 1019 -91 701 211 
Q 384 513 384 1019 
Q 384 1609 779 1909 
Q 1175 2209 1959 2209 
L 2766 2209 
L 2766 2266 
Q 2766 2663 2505 2880 
Q 2244 3097 1772 3097 
Q 1472 3097 1187 3025 
Q 903 2953 641 2809 
L 641 3341 
Q 956 3463 1253 3523 
Q 1550 3584 1831 3584 
Q 2591 3584 2966 3190 
Q 3341 2797 3341 1997 
z
" transform="scale(0.015625)"/>
      <path id="DejaVuSans-20" transform="scale(0.015625)"/>
      <path id="DejaVuSans-28" d="M 1984 4856 
Q 1566 4138 1362 3434 
Q 1159 2731 1159 2009 
Q 1159 1288 1364 580 
Q 1569 -128 1984 -844 
L 1484 -844 
Q 1016 -109 783 600 
Q 550 1309 550 2009 
Q 550 2706 781 3412 
Q 1013 4119 1484 4856 
L 1984 4856 
z
" transform="scale(0.015625)"/>
      <path id="DejaVuSans-6b" d="M 581 4863 
L 1159 4863 
L 1159 1991 
L 2875 3500 
L 3609 3500 
L 1753 1863 
L 3688 0 
L 2938 0 
L 1159 1709 
L 1159 0 
L 581 0 
L 581 4863 
z
" transform="scale(0.015625)"/>
      <path id="DejaVuSans-6d" d="M 3328 2828 
Q 3544 3216 3844 3400 
Q 4144 3584 4550 3584 
Q 5097 3584 5394 3201 
Q 5691 2819 5691 2113 
L 5691 0 
L 5113 0 
L 5113 2094 
Q 5113 2597 4934 2840 
Q 4756 3084 4391 3084 
Q 3944 3084 3684 2787 
Q 3425 2491 3425 1978 
L 3425 0 
L 2847 0 
L 2847 2094 
Q 2847 2600 2669 2842 
Q 2491 3084 2119 3084 
Q 1678 3084 1418 2786 
Q 1159 2488 1159 1978 
L 1159 0 
L 581 0 
L 581 3500 
L 1159 3500 
L 1159 2956 
Q 1356 3278 1631 3431 
Q 1906 3584 2284 3584 
Q 2666 3584 2933 3390 
Q 3200 3197 3328 2828 
z
" transform="scale(0.015625)"/>
      <path id="DejaVuSans-29" d="M 513 4856 
L 1013 4856 
Q 1481 4119 1714 3412 
Q 1947 2706 1947 2009 
Q 1947 1309 1714 600 
Q 1481 -109 1013 -844 
L 513 -844 
Q 928 -128 1133 580 
Q 1338 1288 1338 2009 
Q 1338 2731 1133 3434 
Q 928 4138 513 4856 
z
" transform="scale(0.015625)"/>
     </defs>
     <use xlink:href="#DejaVuSans-61"/>
     <use xlink:href="#DejaVuSans-20" x="61.279297"/>
     <use xlink:href="#DejaVuSans-28" x="93.066406"/>
     <use xlink:href="#DejaVuSans-6b" x="132.080078"/>
     <use xlink:href="#DejaVuSans-6d" x="189.990234"/>
     <use xlink:href="#DejaVuSans-29" x="287.402344"/>
    </g>
   </g>
   <g id="Line3DCollection_1">
    <path d="M 132.250704 244.926154 
L 219.652219 170.800215 
L 218.79322 64.33968 
" style="fill: none; stroke: #b0b0b0; stroke-width: 0.8"/>
    <path d="M 153.16891 251.75804 
L 239.449907 176.554622 
L 239.436729 69.572207 
" style="fill: none; stroke: #b0b0b0; stroke-width: 0.8"/>
    <path d="M 174.405527 258.693919 
L 259.523908 182.389341 
L 260.380846 74.88093 
" style="fill: none; stroke: #b0b0b0; stroke-width: 0.8"/>
    <path d="M 195.967881 265.736184 
L 279.880048 188.306068 
L 281.632185 80.267526 
" style="fill: none; stroke: #b0b0b0; stroke-width: 0.8"/>
    <path d="M 217.863526 272.887301 
L 300.524317 194.306542 
L 303.197557 85.733719 
" style="fill: none; stroke: #b0b0b0; stroke-width: 0.8"/>
    <path d="M 240.100249 280.149815 
L 321.462876 200.392554 
L 325.083974 91.281287 
" style="fill: none; stroke: #b0b0b0; stroke-width: 0.8"/>
    <path d="M 262.686081 287.526347 
L 342.702063 206.565947 
L 347.298659 96.912062 
" style="fill: none; stroke: #b0b0b0; stroke-width: 0.8"/>
   </g>
   <g id="xtick_1">
    <g id="line2d_2">
     <path d="M 133.011792 244.280669 
L 130.725263 246.219892 
" style="fill: none; stroke: #000000; stroke-width: 0.8; stroke-linecap: square"/>
    </g>
    <g id="text_2">
     <!-- 400 -->
     <g transform="translate(115.177905 268.235303) scale(0.1 -0.1)">
      <defs>
       <path id="DejaVuSans-34" d="M 2419 4116 
L 825 1625 
L 2419 1625 
L 2419 4116 
z
M 2253 4666 
L 3047 4666 
L 3047 1625 
L 3713 1625 
L 3713 1100 
L 3047 1100 
L 3047 0 
L 2419 0 
L 2419 1100 
L 313 1100 
L 313 1709 
L 2253 4666 
z
" transform="scale(0.015625)"/>
       <path id="DejaVuSans-30" d="M 2034 4250 
Q 1547 4250 1301 3770 
Q 1056 3291 1056 2328 
Q 1056 1369 1301 889 
Q 1547 409 2034 409 
Q 2525 409 2770 889 
Q 3016 1369 3016 2328 
Q 3016 3291 2770 3770 
Q 2525 4250 2034 4250 
z
M 2034 4750 
Q 2819 4750 3233 4129 
Q 3647 3509 3647 2328 
Q 3647 1150 3233 529 
Q 2819 -91 2034 -91 
Q 1250 -91 836 529 
Q 422 1150 422 2328 
Q 422 3509 836 4129 
Q 1250 4750 2034 4750 
z
" transform="scale(0.015625)"/>
      </defs>
      <use xlink:href="#DejaVuSans-34"/>
      <use xlink:href="#DejaVuSans-30" x="63.623047"/>
      <use xlink:href="#DejaVuSans-30" x="127.246094"/>
     </g>
    </g>
   </g>
   <g id="xtick_2">
    <g id="line2d_3">
     <path d="M 153.920701 251.102771 
L 151.662077 253.071411 
" style="fill: none; stroke: #000000; stroke-width: 0.8; stroke-linecap: square"/>
    </g>
    <g id="text_3">
     <!-- 500 -->
     <g transform="translate(136.117375 275.211891) scale(0.1 -0.1)">
      <defs>
       <path id="DejaVuSans-35" d="M 691 4666 
L 3169 4666 
L 3169 4134 
L 1269 4134 
L 1269 2991 
Q 1406 3038 1543 3061 
Q 1681 3084 1819 3084 
Q 2600 3084 3056 2656 
Q 3513 2228 3513 1497 
Q 3513 744 3044 326 
Q 2575 -91 1722 -91 
Q 1428 -91 1123 -41 
Q 819 9 494 109 
L 494 744 
Q 775 591 1075 516 
Q 1375 441 1709 441 
Q 2250 441 2565 725 
Q 2881 1009 2881 1497 
Q 2881 1984 2565 2268 
Q 2250 2553 1709 2553 
Q 1456 2553 1204 2497 
Q 953 2441 691 2322 
L 691 4666 
z
" transform="scale(0.015625)"/>
      </defs>
      <use xlink:href="#DejaVuSans-35"/>
      <use xlink:href="#DejaVuSans-30" x="63.623047"/>
      <use xlink:href="#DejaVuSans-30" x="127.246094"/>
     </g>
    </g>
   </g>
   <g id="xtick_3">
    <g id="line2d_4">
     <path d="M 175.147649 258.028641 
L 172.918048 260.027372 
" style="fill: none; stroke: #000000; stroke-width: 0.8; stroke-linecap: square"/>
    </g>
    <g id="text_4">
     <!-- 600 -->
     <g transform="translate(157.376784 282.295075) scale(0.1 -0.1)">
      <defs>
       <path id="DejaVuSans-36" d="M 2113 2584 
Q 1688 2584 1439 2293 
Q 1191 2003 1191 1497 
Q 1191 994 1439 701 
Q 1688 409 2113 409 
Q 2538 409 2786 701 
Q 3034 994 3034 1497 
Q 3034 2003 2786 2293 
Q 2538 2584 2113 2584 
z
M 3366 4563 
L 3366 3988 
Q 3128 4100 2886 4159 
Q 2644 4219 2406 4219 
Q 1781 4219 1451 3797 
Q 1122 3375 1075 2522 
Q 1259 2794 1537 2939 
Q 1816 3084 2150 3084 
Q 2853 3084 3261 2657 
Q 3669 2231 3669 1497 
Q 3669 778 3244 343 
Q 2819 -91 2113 -91 
Q 1303 -91 875 529 
Q 447 1150 447 2328 
Q 447 3434 972 4092 
Q 1497 4750 2381 4750 
Q 2619 4750 2861 4703 
Q 3103 4656 3366 4563 
z
" transform="scale(0.015625)"/>
      </defs>
      <use xlink:href="#DejaVuSans-36"/>
      <use xlink:href="#DejaVuSans-30" x="63.623047"/>
      <use xlink:href="#DejaVuSans-30" x="127.246094"/>
     </g>
    </g>
   </g>
   <g id="xtick_4">
    <g id="line2d_5">
     <path d="M 196.69995 265.060666 
L 194.500531 267.090184 
" style="fill: none; stroke: #000000; stroke-width: 0.8; stroke-linecap: square"/>
    </g>
    <g id="text_5">
     <!-- 700 -->
     <g transform="translate(178.96352 289.487318) scale(0.1 -0.1)">
      <defs>
       <path id="DejaVuSans-37" d="M 525 4666 
L 3525 4666 
L 3525 4397 
L 1831 0 
L 1172 0 
L 2766 4134 
L 525 4134 
L 525 4666 
z
" transform="scale(0.015625)"/>
      </defs>
      <use xlink:href="#DejaVuSans-37"/>
      <use xlink:href="#DejaVuSans-30" x="63.623047"/>
      <use xlink:href="#DejaVuSans-30" x="127.246094"/>
     </g>
    </g>
   </g>
   <g id="xtick_5">
    <g id="line2d_6">
     <path d="M 218.585139 272.201306 
L 216.417107 274.262327 
" style="fill: none; stroke: #000000; stroke-width: 0.8; stroke-linecap: square"/>
    </g>
    <g id="text_6">
     <!-- 800 -->
     <g transform="translate(200.885202 296.791158) scale(0.1 -0.1)">
      <defs>
       <path id="DejaVuSans-38" d="M 2034 2216 
Q 1584 2216 1326 1975 
Q 1069 1734 1069 1313 
Q 1069 891 1326 650 
Q 1584 409 2034 409 
Q 2484 409 2743 651 
Q 3003 894 3003 1313 
Q 3003 1734 2745 1975 
Q 2488 2216 2034 2216 
z
M 1403 2484 
Q 997 2584 770 2862 
Q 544 3141 544 3541 
Q 544 4100 942 4425 
Q 1341 4750 2034 4750 
Q 2731 4750 3128 4425 
Q 3525 4100 3525 3541 
Q 3525 3141 3298 2862 
Q 3072 2584 2669 2484 
Q 3125 2378 3379 2068 
Q 3634 1759 3634 1313 
Q 3634 634 3220 271 
Q 2806 -91 2034 -91 
Q 1263 -91 848 271 
Q 434 634 434 1313 
Q 434 1759 690 2068 
Q 947 2378 1403 2484 
z
M 1172 3481 
Q 1172 3119 1398 2916 
Q 1625 2713 2034 2713 
Q 2441 2713 2670 2916 
Q 2900 3119 2900 3481 
Q 2900 3844 2670 4047 
Q 2441 4250 2034 4250 
Q 1625 4250 1398 4047 
Q 1172 3844 1172 3481 
z
" transform="scale(0.015625)"/>
      </defs>
      <use xlink:href="#DejaVuSans-38"/>
      <use xlink:href="#DejaVuSans-30" x="63.623047"/>
      <use xlink:href="#DejaVuSans-30" x="127.246094"/>
     </g>
    </g>
   </g>
   <g id="xtick_6">
    <g id="line2d_7">
     <path d="M 240.810991 279.453096 
L 238.675594 281.546359 
" style="fill: none; stroke: #000000; stroke-width: 0.8; stroke-linecap: square"/>
    </g>
    <g id="text_7">
     <!-- 900 -->
     <g transform="translate(223.149686 304.209212) scale(0.1 -0.1)">
      <defs>
       <path id="DejaVuSans-39" d="M 703 97 
L 703 672 
Q 941 559 1184 500 
Q 1428 441 1663 441 
Q 2288 441 2617 861 
Q 2947 1281 2994 2138 
Q 2813 1869 2534 1725 
Q 2256 1581 1919 1581 
Q 1219 1581 811 2004 
Q 403 2428 403 3163 
Q 403 3881 828 4315 
Q 1253 4750 1959 4750 
Q 2769 4750 3195 4129 
Q 3622 3509 3622 2328 
Q 3622 1225 3098 567 
Q 2575 -91 1691 -91 
Q 1453 -91 1209 -44 
Q 966 3 703 97 
z
M 1959 2075 
Q 2384 2075 2632 2365 
Q 2881 2656 2881 3163 
Q 2881 3666 2632 3958 
Q 2384 4250 1959 4250 
Q 1534 4250 1286 3958 
Q 1038 3666 1038 3163 
Q 1038 2656 1286 2365 
Q 1534 2075 1959 2075 
z
" transform="scale(0.015625)"/>
      </defs>
      <use xlink:href="#DejaVuSans-39"/>
      <use xlink:href="#DejaVuSans-30" x="63.623047"/>
      <use xlink:href="#DejaVuSans-30" x="127.246094"/>
     </g>
    </g>
   </g>
   <g id="xtick_7">
    <g id="line2d_8">
     <path d="M 263.385522 286.818651 
L 261.284057 288.94492 
" style="fill: none; stroke: #000000; stroke-width: 0.8; stroke-linecap: square"/>
    </g>
    <g id="text_8">
     <!-- 1000 -->
     <g transform="translate(242.583827 311.744181) scale(0.1 -0.1)">
      <defs>
       <path id="DejaVuSans-31" d="M 794 531 
L 1825 531 
L 1825 4091 
L 703 3866 
L 703 4441 
L 1819 4666 
L 2450 4666 
L 2450 531 
L 3481 531 
L 3481 0 
L 794 0 
L 794 531 
z
" transform="scale(0.015625)"/>
      </defs>
      <use xlink:href="#DejaVuSans-31"/>
      <use xlink:href="#DejaVuSans-30" x="63.623047"/>
      <use xlink:href="#DejaVuSans-30" x="127.246094"/>
      <use xlink:href="#DejaVuSans-30" x="190.869141"/>
     </g>
    </g>
   </g>
  </g>
  <g id="axis3d_2">
   <g id="line2d_9">
    <path d="M 352.090401 209.294766 
L 272.679269 290.790123 
" style="fill: none; stroke: #000000; stroke-width: 0.8; stroke-linecap: square"/>
   </g>
   <g id="text_9">
    <!-- e -->
    <g transform="translate(338.056219 278.988697) scale(0.1 -0.1)">
     <defs>
      <path id="DejaVuSans-65" d="M 3597 1894 
L 3597 1613 
L 953 1613 
Q 991 1019 1311 708 
Q 1631 397 2203 397 
Q 2534 397 2845 478 
Q 3156 559 3463 722 
L 3463 178 
Q 3153 47 2828 -22 
Q 2503 -91 2169 -91 
Q 1331 -91 842 396 
Q 353 884 353 1716 
Q 353 2575 817 3079 
Q 1281 3584 2069 3584 
Q 2775 3584 3186 3129 
Q 3597 2675 3597 1894 
z
M 3022 2063 
Q 3016 2534 2758 2815 
Q 2500 3097 2075 3097 
Q 1594 3097 1305 2825 
Q 1016 2553 972 2059 
L 3022 2063 
z
" transform="scale(0.015625)"/>
     </defs>
     <use xlink:href="#DejaVuSans-65"/>
    </g>
   </g>
   <g id="Line3DCollection_2">
    <path d="M 124.138093 124.625967 
L 129.252888 236.893387 
L 278.173905 285.151275 
" style="fill: none; stroke: #b0b0b0; stroke-width: 0.8"/>
    <path d="M 143.090319 110.795496 
L 147.29455 221.770509 
L 294.524435 268.371608 
" style="fill: none; stroke: #b0b0b0; stroke-width: 0.8"/>
    <path d="M 161.385615 97.444422 
L 164.737592 207.149405 
L 310.304272 252.177613 
" style="fill: none; stroke: #b0b0b0; stroke-width: 0.8"/>
    <path d="M 179.057556 84.548245 
L 181.611321 193.005511 
L 325.542782 236.539153 
" style="fill: none; stroke: #b0b0b0; stroke-width: 0.8"/>
    <path d="M 196.137466 72.084104 
L 197.943162 179.315838 
L 340.267351 221.428123 
" style="fill: none; stroke: #b0b0b0; stroke-width: 0.8"/>
   </g>
   <g id="xtick_8">
    <g id="line2d_10">
     <path d="M 276.918943 284.744604 
L 280.687074 285.965668 
" style="fill: none; stroke: #000000; stroke-width: 0.8; stroke-linecap: square"/>
    </g>
    <g id="text_10">
     <!-- 0.0 -->
     <g transform="translate(283.102976 306.173005) scale(0.1 -0.1)">
      <defs>
       <path id="DejaVuSans-2e" d="M 684 794 
L 1344 794 
L 1344 0 
L 684 0 
L 684 794 
z
" transform="scale(0.015625)"/>
      </defs>
      <use xlink:href="#DejaVuSans-30"/>
      <use xlink:href="#DejaVuSans-2e" x="63.623047"/>
      <use xlink:href="#DejaVuSans-30" x="95.410156"/>
     </g>
    </g>
   </g>
   <g id="xtick_9">
    <g id="line2d_11">
     <path d="M 293.284841 267.979253 
L 297.006773 269.157316 
" style="fill: none; stroke: #000000; stroke-width: 0.8; stroke-linecap: square"/>
    </g>
    <g id="text_11">
     <!-- 0.2 -->
     <g transform="translate(299.234205 289.144907) scale(0.1 -0.1)">
      <defs>
       <path id="DejaVuSans-32" d="M 1228 531 
L 3431 531 
L 3431 0 
L 469 0 
L 469 531 
Q 828 903 1448 1529 
Q 2069 2156 2228 2338 
Q 2531 2678 2651 2914 
Q 2772 3150 2772 3378 
Q 2772 3750 2511 3984 
Q 2250 4219 1831 4219 
Q 1534 4219 1204 4116 
Q 875 4013 500 3803 
L 500 4441 
Q 881 4594 1212 4672 
Q 1544 4750 1819 4750 
Q 2544 4750 2975 4387 
Q 3406 4025 3406 3419 
Q 3406 3131 3298 2873 
Q 3191 2616 2906 2266 
Q 2828 2175 2409 1742 
Q 1991 1309 1228 531 
z
" transform="scale(0.015625)"/>
      </defs>
      <use xlink:href="#DejaVuSans-30"/>
      <use xlink:href="#DejaVuSans-2e" x="63.623047"/>
      <use xlink:href="#DejaVuSans-32" x="95.410156"/>
     </g>
    </g>
   </g>
   <g id="xtick_10">
    <g id="line2d_12">
     <path d="M 309.079746 251.79883 
L 312.75638 252.936125 
" style="fill: none; stroke: #000000; stroke-width: 0.8; stroke-linecap: square"/>
    </g>
    <g id="text_12">
     <!-- 0.4 -->
     <g transform="translate(314.802069 272.711497) scale(0.1 -0.1)">
      <use xlink:href="#DejaVuSans-30"/>
      <use xlink:href="#DejaVuSans-2e" x="63.623047"/>
      <use xlink:href="#DejaVuSans-34" x="95.410156"/>
     </g>
    </g>
   </g>
   <g id="xtick_11">
    <g id="line2d_13">
     <path d="M 324.333029 236.17325 
L 327.965256 237.271857 
" style="fill: none; stroke: #000000; stroke-width: 0.8; stroke-linecap: square"/>
    </g>
    <g id="text_13">
     <!-- 0.6 -->
     <g transform="translate(329.835575 256.842154) scale(0.1 -0.1)">
      <use xlink:href="#DejaVuSans-30"/>
      <use xlink:href="#DejaVuSans-2e" x="63.623047"/>
      <use xlink:href="#DejaVuSans-36" x="95.410156"/>
     </g>
    </g>
   </g>
   <g id="xtick_12">
    <g id="line2d_14">
     <path d="M 339.072079 221.074454 
L 342.660778 222.136314 
" style="fill: none; stroke: #000000; stroke-width: 0.8; stroke-linecap: square"/>
    </g>
    <g id="text_14">
     <!-- 0.8 -->
     <g transform="translate(344.361771 241.508327) scale(0.1 -0.1)">
      <use xlink:href="#DejaVuSans-30"/>
      <use xlink:href="#DejaVuSans-2e" x="63.623047"/>
      <use xlink:href="#DejaVuSans-38" x="95.410156"/>
     </g>
    </g>
   </g>
  </g>
  <g id="axis3d_3">
   <g id="line2d_15">
    <path d="M 352.090401 209.294766 
L 357.122702 99.402171 
" style="fill: none; stroke: #000000; stroke-width: 0.8; stroke-linecap: square"/>
   </g>
   <g id="text_15">
    <!-- i (deg) -->
    <g transform="translate(396.937859 166.55675) rotate(-87.378092) scale(0.1 -0.1)">
     <defs>
      <path id="DejaVuSans-69" d="M 603 3500 
L 1178 3500 
L 1178 0 
L 603 0 
L 603 3500 
z
M 603 4863 
L 1178 4863 
L 1178 4134 
L 603 4134 
L 603 4863 
z
" transform="scale(0.015625)"/>
      <path id="DejaVuSans-64" d="M 2906 2969 
L 2906 4863 
L 3481 4863 
L 3481 0 
L 2906 0 
L 2906 525 
Q 2725 213 2448 61 
Q 2172 -91 1784 -91 
Q 1150 -91 751 415 
Q 353 922 353 1747 
Q 353 2572 751 3078 
Q 1150 3584 1784 3584 
Q 2172 3584 2448 3432 
Q 2725 3281 2906 2969 
z
M 947 1747 
Q 947 1113 1208 752 
Q 1469 391 1925 391 
Q 2381 391 2643 752 
Q 2906 1113 2906 1747 
Q 2906 2381 2643 2742 
Q 2381 3103 1925 3103 
Q 1469 3103 1208 2742 
Q 947 2381 947 1747 
z
" transform="scale(0.015625)"/>
      <path id="DejaVuSans-67" d="M 2906 1791 
Q 2906 2416 2648 2759 
Q 2391 3103 1925 3103 
Q 1463 3103 1205 2759 
Q 947 2416 947 1791 
Q 947 1169 1205 825 
Q 1463 481 1925 481 
Q 2391 481 2648 825 
Q 2906 1169 2906 1791 
z
M 3481 434 
Q 3481 -459 3084 -895 
Q 2688 -1331 1869 -1331 
Q 1566 -1331 1297 -1286 
Q 1028 -1241 775 -1147 
L 775 -588 
Q 1028 -725 1275 -790 
Q 1522 -856 1778 -856 
Q 2344 -856 2625 -561 
Q 2906 -266 2906 331 
L 2906 616 
Q 2728 306 2450 153 
Q 2172 0 1784 0 
Q 1141 0 747 490 
Q 353 981 353 1791 
Q 353 2603 747 3093 
Q 1141 3584 1784 3584 
Q 2172 3584 2450 3431 
Q 2728 3278 2906 2969 
L 2906 3500 
L 3481 3500 
L 3481 434 
z
" transform="scale(0.015625)"/>
     </defs>
     <use xlink:href="#DejaVuSans-69"/>
     <use xlink:href="#DejaVuSans-20" x="27.783203"/>
     <use xlink:href="#DejaVuSans-28" x="59.570312"/>
     <use xlink:href="#DejaVuSans-64" x="98.583984"/>
     <use xlink:href="#DejaVuSans-65" x="162.060547"/>
     <use xlink:href="#DejaVuSans-67" x="223.583984"/>
     <use xlink:href="#DejaVuSans-29" x="287.060547"/>
    </g>
   </g>
   <g id="text_16">
    <!-- +9e1 -->
    <g transform="translate(133.958868 372.902199) rotate(-87.378092) scale(0.1 -0.1)">
     <defs>
      <path id="DejaVuSans-2b" d="M 2944 4013 
L 2944 2272 
L 4684 2272 
L 4684 1741 
L 2944 1741 
L 2944 0 
L 2419 0 
L 2419 1741 
L 678 1741 
L 678 2272 
L 2419 2272 
L 2419 4013 
L 2944 4013 
z
" transform="scale(0.015625)"/>
     </defs>
     <use xlink:href="#DejaVuSans-2b"/>
     <use xlink:href="#DejaVuSans-39" x="83.789062"/>
     <use xlink:href="#DejaVuSans-65" x="147.412109"/>
     <use xlink:href="#DejaVuSans-31" x="208.935547"/>
    </g>
   </g>
   <g id="Line3DCollection_3">
    <path d="M 353.262704 183.694661 
L 210.791125 143.519699 
L 121.934662 215.749987 
" style="fill: none; stroke: #b0b0b0; stroke-width: 0.8"/>
    <path d="M 354.366427 159.592173 
L 210.523016 120.204286 
L 120.74499 191.045684 
" style="fill: none; stroke: #b0b0b0; stroke-width: 0.8"/>
    <path d="M 355.491825 135.016344 
L 210.249898 96.453212 
L 119.531048 165.837402 
" style="fill: none; stroke: #b0b0b0; stroke-width: 0.8"/>
    <path d="M 356.639544 109.953091 
L 209.971628 72.25415 
L 118.292087 140.109559 
" style="fill: none; stroke: #b0b0b0; stroke-width: 0.8"/>
   </g>
   <g id="xtick_13">
    <g id="line2d_16">
     <path d="M 352.066391 183.357317 
L 355.658204 184.370158 
" style="fill: none; stroke: #000000; stroke-width: 0.8; stroke-linecap: square"/>
    </g>
    <g id="text_17">
     <!-- 0.002 -->
     <g transform="translate(357.383592 188.738551) scale(0.1 -0.1)">
      <use xlink:href="#DejaVuSans-30"/>
      <use xlink:href="#DejaVuSans-2e" x="63.623047"/>
      <use xlink:href="#DejaVuSans-30" x="95.410156"/>
      <use xlink:href="#DejaVuSans-30" x="159.033203"/>
      <use xlink:href="#DejaVuSans-32" x="222.65625"/>
     </g>
    </g>
   </g>
   <g id="xtick_14">
    <g id="line2d_17">
     <path d="M 353.15804 159.261287 
L 356.786132 160.254748 
" style="fill: none; stroke: #000000; stroke-width: 0.8; stroke-linecap: square"/>
    </g>
    <g id="text_18">
     <!-- 0.004 -->
     <g transform="translate(358.66265 164.685023) scale(0.1 -0.1)">
      <use xlink:href="#DejaVuSans-30"/>
      <use xlink:href="#DejaVuSans-2e" x="63.623047"/>
      <use xlink:href="#DejaVuSans-30" x="95.410156"/>
      <use xlink:href="#DejaVuSans-30" x="159.033203"/>
      <use xlink:href="#DejaVuSans-34" x="222.65625"/>
     </g>
    </g>
   </g>
   <g id="xtick_15">
    <g id="line2d_18">
     <path d="M 354.271119 134.692235 
L 357.936229 135.665357 
" style="fill: none; stroke: #000000; stroke-width: 0.8; stroke-linecap: square"/>
    </g>
    <g id="text_19">
     <!-- 0.006 -->
     <g transform="translate(359.966749 140.160575) scale(0.1 -0.1)">
      <use xlink:href="#DejaVuSans-30"/>
      <use xlink:href="#DejaVuSans-2e" x="63.623047"/>
      <use xlink:href="#DejaVuSans-30" x="95.410156"/>
      <use xlink:href="#DejaVuSans-30" x="159.033203"/>
      <use xlink:href="#DejaVuSans-36" x="222.65625"/>
     </g>
    </g>
   </g>
   <g id="xtick_16">
    <g id="line2d_19">
     <path d="M 355.406265 109.636094 
L 359.109156 110.587871 
" style="fill: none; stroke: #000000; stroke-width: 0.8; stroke-linecap: square"/>
    </g>
    <g id="text_20">
     <!-- 0.008 -->
     <g transform="translate(361.296632 115.15124) scale(0.1 -0.1)">
      <use xlink:href="#DejaVuSans-30"/>
      <use xlink:href="#DejaVuSans-2e" x="63.623047"/>
      <use xlink:href="#DejaVuSans-30" x="95.410156"/>
      <use xlink:href="#DejaVuSans-30" x="159.033203"/>
      <use xlink:href="#DejaVuSans-38" x="222.65625"/>
     </g>
    </g>
   </g>
  </g>
  <g id="axes_1">
   <g id="Poly3DCollection_1">
    <path d="M 206.560949 179.438232 
L 219.854406 182.987711 
L 227.722508 176.86069 
L 214.498549 173.102667 
z
" clip-path="url(#p7d211a1bba)" style="fill: #440154"/>
    <path d="M 219.854406 182.987711 
L 233.276404 186.410906 
L 241.070831 180.609554 
L 227.722508 176.86069 
z
" clip-path="url(#p7d211a1bba)" style="fill: #440154"/>
    <path d="M 198.489408 185.729271 
L 211.850729 188.960775 
L 219.854406 182.987711 
L 206.560949 179.438232 
z
" clip-path="url(#p7d211a1bba)" style="fill: #440256"/>
    <path d="M 233.276404 186.410906 
L 246.831577 189.670899 
L 254.546067 184.339449 
L 241.070831 180.609554 
z
" clip-path="url(#p7d211a1bba)" style="fill: #450457"/>
    <path d="M 211.850729 188.960775 
L 225.345017 191.900251 
L 233.276404 186.410906 
L 219.854406 182.987711 
z
" clip-path="url(#p7d211a1bba)" style="fill: #450559"/>
    <path d="M 246.831577 189.670899 
L 260.525518 192.727828 
L 268.151053 188.039791 
L 254.546067 184.339449 
z
" clip-path="url(#p7d211a1bba)" style="fill: #450559"/>
    <path d="M 190.280538 192.048944 
L 203.707296 194.903746 
L 211.850729 188.960775 
L 198.489408 185.729271 
z
" clip-path="url(#p7d211a1bba)" style="fill: #46075a"/>
    <path d="M 225.345017 191.900251 
L 238.979674 194.472106 
L 246.831577 189.670899 
L 233.276404 186.410906 
z
" clip-path="url(#p7d211a1bba)" style="fill: #460a5d"/>
    <path d="M 260.525518 192.727828 
L 274.364894 195.538896 
L 281.888945 191.699247 
L 268.151053 188.039791 
z
" clip-path="url(#p7d211a1bba)" style="fill: #46085c"/>
    <path d="M 203.707296 194.903746 
L 217.270857 197.273966 
L 225.345017 191.900251 
L 211.850729 188.960775 
z
" clip-path="url(#p7d211a1bba)" style="fill: #460b5e"/>
    <path d="M 238.979674 194.472106 
L 252.76402 196.59441 
L 260.525518 192.727828 
L 246.831577 189.670899 
z
" clip-path="url(#p7d211a1bba)" style="fill: #471063"/>
    <path d="M 274.364894 195.538896 
L 288.357561 198.05834 
L 295.763247 195.305742 
L 281.888945 191.699247 
z
" clip-path="url(#p7d211a1bba)" style="fill: #470d60"/>
    <path d="M 181.931551 198.46234 
L 195.421093 200.926653 
L 203.707296 194.903746 
L 190.280538 192.048944 
z
" clip-path="url(#p7d211a1bba)" style="fill: #460a5d"/>
    <path d="M 217.270857 197.273966 
L 230.98162 199.038546 
L 238.979674 194.472106 
L 225.345017 191.900251 
z
" clip-path="url(#p7d211a1bba)" style="fill: #471365"/>
    <path d="M 252.76402 196.59441 
L 266.709529 198.178739 
L 274.364894 195.538896 
L 260.525518 192.727828 
z
" clip-path="url(#p7d211a1bba)" style="fill: #481769"/>
    <path d="M 288.357561 198.05834 
L 302.512691 200.237359 
L 309.777843 198.846471 
L 295.763247 195.305742 
z
" clip-path="url(#p7d211a1bba)" style="fill: #471164"/>
    <path d="M 195.421093 200.926653 
L 209.050135 202.70651 
L 217.270857 197.273966 
L 203.707296 194.903746 
z
" clip-path="url(#p7d211a1bba)" style="fill: #471164"/>
    <path d="M 230.98162 199.038546 
L 244.853016 200.065661 
L 252.76402 196.59441 
L 238.979674 194.472106 
z
" clip-path="url(#p7d211a1bba)" style="fill: #481b6d"/>
    <path d="M 173.440157 205.026253 
L 186.990105 207.125322 
L 195.421093 200.926653 
L 181.931551 198.46234 
z
" clip-path="url(#p7d211a1bba)" style="fill: #470d60"/>
    <path d="M 266.709529 198.178739 
L 280.830095 199.129887 
L 288.357561 198.05834 
L 274.364894 195.538896 
z
" clip-path="url(#p7d211a1bba)" style="fill: #481f70"/>
    <path d="M 302.512691 200.237359 
L 316.840899 202.024001 
L 323.937031 202.307895 
L 309.777843 198.846471 
z
" clip-path="url(#p7d211a1bba)" style="fill: #481769"/>
    <path d="M 209.050135 202.70651 
L 222.831928 203.63301 
L 230.98162 199.038546 
L 217.270857 197.273966 
z
" clip-path="url(#p7d211a1bba)" style="fill: #481b6d"/>
    <path d="M 244.853016 200.065661 
L 258.901921 200.212152 
L 266.709529 198.178739 
L 252.76402 196.59441 
z
" clip-path="url(#p7d211a1bba)" style="fill: #482576"/>
    <path d="M 186.990105 207.125322 
L 200.680831 208.349844 
L 209.050135 202.70651 
L 195.421093 200.926653 
z
" clip-path="url(#p7d211a1bba)" style="fill: #481769"/>
    <path d="M 280.830095 199.129887 
L 295.142313 199.345434 
L 302.512691 200.237359 
L 288.357561 198.05834 
z
" clip-path="url(#p7d211a1bba)" style="fill: #482878"/>
    <path d="M 316.840899 202.024001 
L 331.354395 203.363001 
L 338.245556 205.675744 
L 323.937031 202.307895 
z
" clip-path="url(#p7d211a1bba)" style="fill: #481d6f"/>
    <path d="M 164.804447 211.788925 
L 178.413129 213.5809 
L 186.990105 207.125322 
L 173.440157 205.026253 
z
" clip-path="url(#p7d211a1bba)" style="fill: #471063"/>
    <path d="M 222.831928 203.63301 
L 236.78392 203.521341 
L 244.853016 200.065661 
L 230.98162 199.038546 
z
" clip-path="url(#p7d211a1bba)" style="fill: #482677"/>
    <path d="M 258.901921 200.212152 
L 273.149102 199.322631 
L 280.830095 199.129887 
L 266.709529 198.178739 
z
" clip-path="url(#p7d211a1bba)" style="fill: #46337f"/>
    <path d="M 200.680831 208.349844 
L 214.528006 208.484789 
L 222.831928 203.63301 
L 209.050135 202.70651 
z
" clip-path="url(#p7d211a1bba)" style="fill: #482374"/>
    <path d="M 295.142313 199.345434 
L 309.665788 198.715147 
L 316.840899 202.024001 
L 302.512691 200.237359 
z
" clip-path="url(#p7d211a1bba)" style="fill: #463480"/>
    <path d="M 178.413129 213.5809 
L 192.162406 214.332617 
L 200.680831 208.349844 
L 186.990105 207.125322 
z
" clip-path="url(#p7d211a1bba)" style="fill: #481b6d"/>
    <path d="M 236.78392 203.521341 
L 250.928355 202.1695 
L 258.901921 200.212152 
L 244.853016 200.065661 
z
" clip-path="url(#p7d211a1bba)" style="fill: #453581"/>
    <path d="M 156.022764 218.78976 
L 169.689553 220.359314 
L 178.413129 213.5809 
L 164.804447 211.788925 
z
" clip-path="url(#p7d211a1bba)" style="fill: #471365"/>
    <path d="M 273.149102 199.322631 
L 287.619728 197.228237 
L 295.142313 199.345434 
L 280.830095 199.129887 
z
" clip-path="url(#p7d211a1bba)" style="fill: #414287"/>
    <path d="M 214.528006 208.484789 
L 228.552602 207.293781 
L 236.78392 203.521341 
L 222.831928 203.63301 
z
" clip-path="url(#p7d211a1bba)" style="fill: #46327e"/>
    <path d="M 309.665788 198.715147 
L 324.423493 197.12021 
L 331.354395 203.363001 
L 316.840899 202.024001 
z
" clip-path="url(#p7d211a1bba)" style="fill: #424186"/>
    <path d="M 192.162406 214.332617 
L 206.06974 213.788298 
L 214.528006 208.484789 
L 200.680831 208.349844 
z
" clip-path="url(#p7d211a1bba)" style="fill: #482979"/>
    <path d="M 250.928355 202.1695 
L 265.292956 199.356413 
L 273.149102 199.322631 
L 258.901921 200.212152 
z
" clip-path="url(#p7d211a1bba)" style="fill: #3f4788"/>
    <path d="M 169.689553 220.359314 
L 183.495473 220.759176 
L 192.162406 214.332617 
L 178.413129 213.5809 
z
" clip-path="url(#p7d211a1bba)" style="fill: #481f70"/>
    <path d="M 287.619728 197.228237 
L 302.343948 193.744975 
L 309.665788 198.715147 
L 295.142313 199.345434 
z
" clip-path="url(#p7d211a1bba)" style="fill: #3a548c"/>
    <path d="M 228.552602 207.293781 
L 242.781689 204.516882 
L 250.928355 202.1695 
L 236.78392 203.521341 
z
" clip-path="url(#p7d211a1bba)" style="fill: #404588"/>
    <path d="M 147.093557 226.059038 
L 160.819122 227.510708 
L 169.689553 220.359314 
L 156.022764 218.78976 
z
" clip-path="url(#p7d211a1bba)" style="fill: #481467"/>
    <path d="M 206.06974 213.788298 
L 220.158837 211.665646 
L 228.552602 207.293781 
L 214.528006 208.484789 
z
" clip-path="url(#p7d211a1bba)" style="fill: #443b84"/>
    <path d="M 265.292956 199.356413 
L 279.911704 194.839366 
L 287.619728 197.228237 
L 273.149102 199.322631 
z
" clip-path="url(#p7d211a1bba)" style="fill: #365c8d"/>
    <path d="M 183.495473 220.759176 
L 197.459016 219.701348 
L 206.06974 213.788298 
L 192.162406 214.332617 
z
" clip-path="url(#p7d211a1bba)" style="fill: #472f7d"/>
    <path d="M 160.819122 227.510708 
L 174.681418 227.708524 
L 183.495473 220.759176 
L 169.689553 220.359314 
z
" clip-path="url(#p7d211a1bba)" style="fill: #482173"/>
    <path d="M 302.343948 193.744975 
L 317.357571 188.671582 
L 324.423493 197.12021 
L 309.665788 198.715147 
z
" clip-path="url(#p7d211a1bba)" style="fill: #31688e"/>
    <path d="M 242.781689 204.516882 
L 257.249359 199.86741 
L 265.292956 199.356413 
L 250.928355 202.1695 
z
" clip-path="url(#p7d211a1bba)" style="fill: #375b8d"/>
    <path d="M 138.015219 233.617606 
L 151.801663 235.068865 
L 160.819122 227.510708 
L 147.093557 226.059038 
z
" clip-path="url(#p7d211a1bba)" style="fill: #481668"/>
    <path d="M 220.158837 211.665646 
L 234.460642 207.652581 
L 242.781689 204.516882 
L 228.552602 207.293781 
z
" clip-path="url(#p7d211a1bba)" style="fill: #3b518b"/>
    <path d="M 197.459016 219.701348 
L 211.605649 216.866968 
L 220.158837 211.665646 
L 206.06974 213.788298 
z
" clip-path="url(#p7d211a1bba)" style="fill: #414287"/>
    <path d="M 279.911704 194.839366 
L 294.825766 188.350599 
L 302.343948 193.744975 
L 287.619728 197.228237 
z
" clip-path="url(#p7d211a1bba)" style="fill: #2c738e"/>
    <path d="M 174.681418 227.708524 
L 188.699175 226.343267 
L 197.459016 219.701348 
L 183.495473 220.759176 
z
" clip-path="url(#p7d211a1bba)" style="fill: #46337f"/>
    <path d="M 151.801663 235.068865 
L 165.721982 235.233266 
L 174.681418 227.708524 
L 160.819122 227.510708 
z
" clip-path="url(#p7d211a1bba)" style="fill: #482374"/>
    <path d="M 257.249359 199.86741 
L 271.997811 193.02761 
L 279.911704 194.839366 
L 265.292956 199.356413 
z
" clip-path="url(#p7d211a1bba)" style="fill: #2c728e"/>
    <path d="M 234.460642 207.652581 
L 249.014485 201.402621 
L 257.249359 199.86741 
L 242.781689 204.516882 
z
" clip-path="url(#p7d211a1bba)" style="fill: #306a8e"/>
    <path d="M 211.605649 216.866968 
L 225.968949 211.902079 
L 234.460642 207.652581 
L 220.158837 211.665646 
z
" clip-path="url(#p7d211a1bba)" style="fill: #375b8d"/>
    <path d="M 188.699175 226.343267 
L 202.898547 223.071861 
L 211.605649 216.866968 
L 197.459016 219.701348 
z
" clip-path="url(#p7d211a1bba)" style="fill: #3f4889"/>
    <path d="M 294.825766 188.350599 
L 310.084601 179.592903 
L 317.357571 188.671582 
L 302.343948 193.744975 
z
" clip-path="url(#p7d211a1bba)" style="fill: #218e8d"/>
    <path d="M 165.721982 235.233266 
L 179.794383 233.793037 
L 188.699175 226.343267 
L 174.681418 227.708524 
z
" clip-path="url(#p7d211a1bba)" style="fill: #463480"/>
    <path d="M 271.997811 193.02761 
L 287.078661 183.642919 
L 294.825766 188.350599 
L 279.911704 194.839366 
z
" clip-path="url(#p7d211a1bba)" style="fill: #21908d"/>
    <path d="M 249.014485 201.402621 
L 263.869458 192.528581 
L 271.997811 193.02761 
L 257.249359 199.86741 
z
" clip-path="url(#p7d211a1bba)" style="fill: #24868e"/>
    <path d="M 225.968949 211.902079 
L 240.591942 204.411658 
L 249.014485 201.402621 
L 234.460642 207.652581 
z
" clip-path="url(#p7d211a1bba)" style="fill: #2a768e"/>
    <path d="M 202.898547 223.071861 
L 217.314343 217.512428 
L 225.968949 211.902079 
L 211.605649 216.866968 
z
" clip-path="url(#p7d211a1bba)" style="fill: #34618d"/>
    <path d="M 179.794383 233.793037 
L 194.044636 230.395283 
L 202.898547 223.071861 
L 188.699175 226.343267 
z
" clip-path="url(#p7d211a1bba)" style="fill: #3e4a89"/>
    <path d="M 287.078661 183.642919 
L 302.554558 171.314483 
L 310.084601 179.592903 
L 294.825766 188.350599 
z
" clip-path="url(#p7d211a1bba)" style="fill: #2cb17e"/>
    <path d="M 263.869458 192.528581 
L 279.086116 180.594216 
L 287.078661 183.642919 
L 271.997811 193.02761 
z
" clip-path="url(#p7d211a1bba)" style="fill: #23a983"/>
    <path d="M 194.044636 230.395283 
L 208.507342 224.646732 
L 217.314343 217.512428 
L 202.898547 223.071861 
z
" clip-path="url(#p7d211a1bba)" style="fill: #32658e"/>
    <path d="M 217.314343 217.512428 
L 231.991487 209.237318 
L 240.591942 204.411658 
L 225.968949 211.902079 
z
" clip-path="url(#p7d211a1bba)" style="fill: #277e8e"/>
    <path d="M 240.591942 204.411658 
L 255.528723 193.951483 
L 263.869458 192.528581 
L 249.014485 201.402621 
z
" clip-path="url(#p7d211a1bba)" style="fill: #1f968b"/>
    <path d="M 208.507342 224.646732 
L 223.227445 216.10632 
L 231.991487 209.237318 
L 217.314343 217.512428 
z
" clip-path="url(#p7d211a1bba)" style="fill: #26828e"/>
    <path d="M 231.991487 209.237318 
L 246.986809 197.76361 
L 255.528723 193.951483 
L 240.591942 204.411658 
z
" clip-path="url(#p7d211a1bba)" style="fill: #1fa188"/>
    <path d="M 279.086116 180.594216 
L 294.738601 165.103214 
L 302.554558 171.314483 
L 287.078661 183.642919 
z
" clip-path="url(#p7d211a1bba)" style="fill: #69cd5b"/>
    <path d="M 255.528723 193.951483 
L 270.846484 180.017277 
L 279.086116 180.594216 
L 263.869458 192.528581 
z
" clip-path="url(#p7d211a1bba)" style="fill: #3dbc74"/>
    <path d="M 223.227445 216.10632 
L 238.262072 204.275071 
L 246.986809 197.76361 
L 231.991487 209.237318 
z
" clip-path="url(#p7d211a1bba)" style="fill: #22a785"/>
    <path d="M 246.986809 197.76361 
L 262.371286 182.540391 
L 270.846484 180.017277 
L 255.528723 193.951483 
z
" clip-path="url(#p7d211a1bba)" style="fill: #5cc863"/>
    <path d="M 270.846484 180.017277 
L 286.628085 162.030335 
L 294.738601 165.103214 
L 279.086116 180.594216 
z
" clip-path="url(#p7d211a1bba)" style="fill: #b2dd2d"/>
    <path d="M 238.262072 204.275071 
L 253.682859 188.582547 
L 262.371286 182.540391 
L 246.986809 197.76361 
z
" clip-path="url(#p7d211a1bba)" style="fill: #6ece58"/>
    <path d="M 262.371286 182.540391 
L 278.23292 162.931832 
L 286.628085 162.030335 
L 270.846484 180.017277 
z
" clip-path="url(#p7d211a1bba)" style="fill: #e5e419"/>
    <path d="M 253.682859 188.582547 
L 269.578938 168.368752 
L 278.23292 162.931832 
L 262.371286 182.540391 
z
" clip-path="url(#p7d211a1bba)" style="fill: #fde725"/>
   </g>
  </g>
 </g>
 <defs>
  <clipPath id="p7d211a1bba">
   <rect x="103.104" y="41.472" width="266.112" height="266.112"/>
  </clipPath>
 </defs>
</svg>
